<?xml version="1.0" encoding="utf-8"?>
<!-- Generator: Adobe Illustrator 16.0.0, SVG Export Plug-In . SVG Version: 6.00 Build 0)  -->
<!DOCTYPE svg PUBLIC "-//W3C//DTD SVG 1.0//EN" "http://www.w3.org/TR/2001/REC-SVG-20010904/DTD/svg10.dtd">
<svg version="1.0" id="Layer_1" xmlns="http://www.w3.org/2000/svg" xmlns:xlink="http://www.w3.org/1999/xlink" x="0px" y="0px"
	 width="800px" height="800px" viewBox="0 0 800 800" enable-background="new 0 0 800 800" xml:space="preserve">
<g>
	<g>
		<path fill="#DA1F27" d="M764.984,652.714v-53.623c0-23.885-16.766-38.188-45.573-38.188c-9.847,0-18.495,2.795-23.485,5.788
			c-31.002-13.106-54.355-4.523-65.998,2.596v83.428h24.883v-69.191c0,0,2.329-2.262,9.248-2.262c13.771,0,20.69,6.919,20.69,20.426
			v50.894h24.218v-59.609c0-4.991-1.598-8.449-1.398-8.583c0.4-0.2,5.789-3.193,11.51-3.193c13.772,0,20.691,6.919,20.691,20.424
			v50.896h25.215V652.714z M617.354,607.94c0-26.746-17.964-46.904-46.904-46.904c-28.675,0-46.638,20.158-46.638,46.904
			c0,35.459,27.81,46.903,46.638,46.903C606.376,654.844,617.354,626.634,617.354,607.94 M591.142,608.141
			c0,16.896-8.849,26.277-20.625,26.277c-11.843,0-20.69-9.314-20.69-26.277c0-14.572,6.786-26.681,20.69-26.681
			C584.354,581.46,591.142,593.568,591.142,608.141 M465.865,607.475c0-22.622,17.298-25.48,22.62-25.48
			c13.506,0,22.221,5.654,22.221,5.654l5.589-20.558c-1.729-0.8-13.373-5.988-27.478-5.988c-37.39,0-47.968,30.272-48.034,47.235
			c0,25.149,18.296,46.572,50.363,46.572c12.907,0,26.944-6.854,26.944-6.854l-6.786-18.762c0,0-11.843,4.857-19.692,4.857
			C475.978,634.087,465.865,623.973,465.865,607.475 M406.387,652.58h21.889v-84.559c-8.516-3.393-23.551-7.053-38.388-7.053
			c-29.873,0-50.763,20.625-50.763,48.834c0,34.462,25.615,44.974,41.582,44.974c11.643,0,18.96-4.19,24.083-9.979L406.387,652.58z
			 M403.46,625.104c-2.928,4.925-9.447,9.249-17.764,9.249c-9.714,0-20.624-6.919-20.624-25.481
			c0-17.496,12.374-26.745,24.283-26.745c6.054,0,11.442,0.931,14.104,1.664V625.104z M290.026,654.844
			c15.103,0,27.477-1.729,38.122-3.926V526.772h-24.55v37.656c-4.125-1.664-11.643-3.393-19.427-3.393
			c-26.945,0-44.908,20.158-44.908,46.371C239.197,648.322,271.464,654.844,290.026,654.844 M290.492,634.152
			c-11.975,0-25.281-6.719-25.281-26.745c0-14.57,7.518-25.947,20.891-25.947c7.518,0,13.639,1.931,17.497,4.126v47.636
			C300.205,633.887,295.349,634.152,290.492,634.152 M228.951,607.94c0-26.746-17.963-46.904-46.904-46.904
			c-28.674,0-46.637,20.158-46.637,46.904c0,35.459,27.81,46.903,46.637,46.903C217.974,654.844,228.951,626.634,228.951,607.94
			 M202.738,608.141c0,16.896-8.781,26.277-20.624,26.277c-11.843,0-20.691-9.314-20.691-26.277
			c0-14.572,6.786-26.681,20.691-26.681C195.953,581.46,202.738,593.568,202.738,608.141 M98.885,652.648l36.192-89.416H107.4
			l-21.356,58.278l-22.088-58.347h-28.94l37.656,89.416h26.213V652.648z"/>
	</g>
	<path fill="#DA1F27" d="M572.646,317.735c0,95.339-77.309,172.646-172.646,172.646c-95.337,0-172.646-77.308-172.646-172.646
		c0-95.338,77.308-172.646,172.646-172.646c21.356,0,41.781,3.858,60.609,10.911c-1.464,0.066-2.994,0.199-4.591,0.266
		c-2.263,0.2-4.657,0.466-7.186,0.799c-5.921,0.799-12.241,1.996-18.762,3.593c-0.998,0.266-8.315,2.195-9.313,2.528
		c-4.924,1.463-9.913,3.193-14.902,5.056c-18.296,7.053-35.262,16.766-49.698,29.141c-24.55,20.757-43.245,49.498-51.096,81.366
		c-2.129,8.449-3.393,17.165-3.925,26.013c0,0.134-0.066,1.663-0.066,1.863c-0.067,0.599-0.133,4.657-0.133,5.256
		c0,4.524,0.199,8.981,0.731,13.438c0.666,6.055,1.73,12.043,3.327,17.831c0.066,0.266,0.533,2.129,0.599,2.395
		c2.994,10.379,7.385,20.158,13.107,29.008c3.792,5.987,8.183,11.443,13.106,16.433c12.375,12.574,27.677,21.755,44.308,26.546
		c5.057,1.463,10.246,2.527,15.369,3.193c3.327,0.399,6.786,0.665,10.179,0.665c9.115,0.134,18.229-1.065,27.012-3.461
		c12.508-3.458,24.083-9.313,34.196-17.297c2.861-2.262,5.655-4.724,8.316-7.318c7.052-7.052,12.907-15.103,17.364-23.884
		c6.853-13.373,10.445-28.408,10.445-43.644c0-0.399-0.066-3.193-0.066-3.526c-0.332-9.182-1.73-17.964-4.191-26.08
		c-2.528-8.316-6.121-15.967-10.777-22.887c-0.133-0.266-1.331-1.929-1.464-2.129c-6.454-8.981-14.771-16.698-24.816-22.886
		c-10.777-6.653-23.485-11.643-38.122-14.77c-0.065-0.267-1.796-0.865-1.796-1.064c0-0.466-0.2-3.26-0.133-3.66
		c0-0.199-0.067-1.529-0.067-1.729c1.464-29.273,17.964-55.286,43.711-67.927c0.266-0.199,0.599-0.333,0.932-0.466
		c0.865-0.399,1.597-0.731,2.195-1.064C527.871,183.012,572.646,245.151,572.646,317.735z"/>
</g>
</svg>
